<svg xmlns="http://www.w3.org/2000/svg" width="41" height="41" viewBox="0 0 41 41" fill="none"><rect width="41" height="41" rx="20.5" fill="#8A47EE"></rect><rect x="1" y="1" width="39" height="39" rx="19.5" stroke="#1959AD" stroke-opacity="0.25" stroke-width="2"></rect><path d="M22.002 28.9381C25.9483 28.446 29.002 25.0796 29.002 21C29.002 16.5817 25.4203 13 21.002 13C16.5837 13 13.002 16.5817 13.002 21C13.002 25.0796 16.0556 28.446 20.002 28.9381V23H18.002V21H20.002V19.3458C20.002 18.0086 20.1412 17.5236 20.4027 17.0347C20.6641 16.5458 21.0478 16.1622 21.5367 15.9007C21.9194 15.696 22.3941 15.5725 23.2237 15.5195C23.5529 15.4985 23.9791 15.5253 24.502 15.6V17.5H24.002C23.0847 17.5 22.7062 17.5433 22.4799 17.6643C22.3396 17.7394 22.2414 17.8376 22.1663 17.9779C22.0453 18.2042 22.002 18.4285 22.002 19.3458V21H24.502L24.002 23H22.002V28.9381ZM21.002 31C15.4791 31 11.002 26.5228 11.002 21C11.002 15.4771 15.4791 11 21.002 11C26.5248 11 31.002 15.4771 31.002 21C31.002 26.5228 26.5248 31 21.002 31Z" fill="white"></path></svg>