<svg xmlns="http://www.w3.org/2000/svg" width="42" height="41" viewBox="0 0 42 41" fill="none"><rect width="42" height="41" rx="20.5" fill="#8A47EE"></rect><rect x="1" y="1" width="40" height="39" rx="19.5" stroke="#1959AD" stroke-opacity="0.25" stroke-width="2"></rect><path d="M21.002 18C19.3446 18 18.002 19.3431 18.002 21C18.002 22.6573 19.3451 24 21.002 24C22.6593 24 24.002 22.6569 24.002 21C24.002 19.3427 22.6589 18 21.002 18ZM21.002 16C23.7624 16 26.002 18.2371 26.002 21C26.002 23.7605 23.7649 26 21.002 26C18.2415 26 16.002 23.7629 16.002 21C16.002 18.2395 18.2391 16 21.002 16ZM27.502 15.7491C27.502 16.4393 26.9412 16.9992 26.252 16.9992C25.5619 16.9992 25.002 16.4384 25.002 15.7491C25.002 15.0599 25.5627 14.5 26.252 14.5C26.9403 14.4991 27.502 15.0599 27.502 15.7491ZM21.002 13C18.5275 13 18.1242 13.0065 16.9732 13.0578C16.1891 13.0946 15.6635 13.2001 15.1751 13.3897C14.7411 13.558 14.4281 13.759 14.0945 14.0925C13.7596 14.4274 13.559 14.7396 13.3914 15.1738C13.2013 15.6633 13.0959 16.1881 13.0598 16.9711C13.008 18.0752 13.002 18.4611 13.002 21C13.002 23.4745 13.0085 23.8778 13.0597 25.0286C13.0966 25.8124 13.2022 26.3388 13.3913 26.826C13.5601 27.2606 13.7615 27.5744 14.0934 27.9064C14.4296 28.2421 14.7428 28.4434 15.1728 28.6094C15.6672 28.8005 16.1925 28.9061 16.9731 28.9422C18.0772 28.9939 18.463 29 21.002 29C23.4765 29 23.8798 28.9934 25.0306 28.9422C25.8127 28.9055 26.3395 28.7996 26.828 28.6106C27.2614 28.4423 27.5762 28.2402 27.9084 27.9085C28.2446 27.5718 28.4455 27.2594 28.6117 26.8283C28.8023 26.3358 28.9081 25.8098 28.9442 25.0289C28.9959 23.9248 29.002 23.5389 29.002 21C29.002 18.5255 28.9954 18.1222 28.9442 16.9714C28.9074 16.1891 28.8015 15.6615 28.6123 15.1732C28.4444 14.7404 28.2427 14.4263 27.9094 14.0925C27.574 13.7571 27.2626 13.5569 26.8281 13.3894C26.339 13.1995 25.8134 13.094 25.0308 13.0578C23.9268 13.006 23.5409 13 21.002 13ZM21.002 11C23.7186 11 24.0578 11.01 25.1245 11.06C26.1886 11.1092 26.9145 11.2775 27.552 11.525C28.2111 11.7792 28.7678 12.1225 29.3236 12.6783C29.8786 13.2342 30.222 13.7925 30.477 14.45C30.7236 15.0867 30.892 15.8133 30.942 16.8775C30.9895 17.9442 31.002 18.2833 31.002 21C31.002 23.7167 30.992 24.0558 30.942 25.1225C30.8928 26.1867 30.7236 26.9125 30.477 27.55C30.2228 28.2092 29.8786 28.7658 29.3236 29.3217C28.7678 29.8767 28.2086 30.22 27.552 30.475C26.9145 30.7217 26.1886 30.89 25.1245 30.94C24.0578 30.9875 23.7186 31 21.002 31C18.2853 31 17.9461 30.99 16.8795 30.94C15.8153 30.8908 15.0903 30.7217 14.452 30.475C13.7936 30.2208 13.2361 29.8767 12.6803 29.3217C12.1245 28.7658 11.782 28.2067 11.527 27.55C11.2795 26.9125 11.112 26.1867 11.062 25.1225C11.0145 24.0558 11.002 23.7167 11.002 21C11.002 18.2833 11.012 17.9442 11.062 16.8775C11.1111 15.8125 11.2795 15.0875 11.527 14.45C11.7811 13.7917 12.1245 13.2342 12.6803 12.6783C13.2361 12.1225 13.7945 11.78 14.452 11.525C15.0895 11.2775 15.8145 11.11 16.8795 11.06C17.9461 11.0125 18.2853 11 21.002 11Z" fill="white"></path></svg>