<svg xmlns="http://www.w3.org/2000/svg" width="41" height="41" viewBox="0 0 41 41" fill="none"><rect width="41" height="41" rx="20.5" fill="#8A47EE"></rect><rect x="1" y="1" width="39" height="39" rx="19.5" stroke="#1959AD" stroke-opacity="0.25" stroke-width="2"></rect><path d="M20.002 29C24.4203 29 28.002 25.4183 28.002 21C28.002 16.5817 24.4203 13 20.002 13C15.5837 13 12.002 16.5817 12.002 21C12.002 25.4183 15.5837 29 20.002 29ZM20.002 31C14.4791 31 10.002 26.5228 10.002 21C10.002 15.4771 14.4791 11 20.002 11C25.5248 11 30.002 15.4771 30.002 21C30.002 26.5228 25.5248 31 20.002 31ZM16.8921 22.1708L14.3941 21.3911C13.8541 21.2255 13.8509 20.854 14.5149 20.5871L24.248 16.8275C24.8125 16.5964 25.1335 16.8884 24.9505 17.6164L23.2927 25.4377C23.1773 25.9941 22.8417 26.1266 22.3769 25.8698L19.826 23.9823L18.6371 25.1297C18.5149 25.2476 18.4155 25.3489 18.2283 25.3743C18.041 25.3996 17.8866 25.3442 17.7743 25.0337L16.9048 22.1628L16.8921 22.1708Z" fill="white"></path></svg>