<svg xmlns="http://www.w3.org/2000/svg" width="41" height="41" viewBox="0 0 41 41" fill="none"><rect width="41" height="41" rx="20.5" fill="#8A47EE"></rect><rect x="1" y="1" width="39" height="39" rx="19.5" stroke="#1959AD" stroke-opacity="0.25" stroke-width="2"></rect><path d="M28.6079 15.9948C28.5317 15.697 28.3162 15.4722 28.0694 15.4029C27.6309 15.2806 25.502 15 21.002 15C16.502 15 14.3735 15.2807 13.9332 15.4032C13.6887 15.4712 13.4733 15.6959 13.3961 15.9948C13.2873 16.4192 13.002 18.196 13.002 21C13.002 23.804 13.2873 25.5808 13.3964 26.0064C13.4722 26.3031 13.6877 26.5278 13.9335 26.5968C14.3735 26.7193 16.502 27 21.002 27C25.502 27 27.6309 26.7194 28.0707 26.5968C28.3152 26.5288 28.5307 26.3041 28.6079 26.0052C28.7167 25.5808 29.002 23.8 29.002 21C29.002 18.2 28.7167 16.4192 28.6079 15.9948ZM30.5452 15.4982C31.002 17.28 31.002 21 31.002 21C31.002 21 31.002 24.72 30.5452 26.5018C30.2907 27.4873 29.548 28.2618 28.6066 28.5236C26.8981 29 21.002 29 21.002 29C21.002 29 15.1093 29 13.3973 28.5236C12.4524 28.2582 11.7098 27.4836 11.4587 26.5018C11.002 24.72 11.002 21 11.002 21C11.002 21 11.002 17.28 11.4587 15.4982C11.7132 14.5127 12.4559 13.7382 13.3973 13.4764C15.1093 13 21.002 13 21.002 13C21.002 13 26.8981 13 28.6066 13.4764C29.5515 13.7418 30.2942 14.5164 30.5452 15.4982ZM19.002 24.5V17.5L25.002 21L19.002 24.5Z" fill="white"></path></svg>